PathFileType	4	(X/Y/Z) flx_2kg_2.trc																										
DataRate	CameraRate	NumFrames	NumMarkers	Units	OrigDataRate	OrigDataStartFrame	OrigNumFrames																					
100	100	29	9	mm	100	616	821																					
Frame#	Time	gu			centelbow			EpL			centpxt8			centijc7			ij			ts			aa			ai		
		X1	Y1	Z1	X2	Y2	Z2	X3	Y3	Z3	X4	Y4	Z4	X5	Y5	Z5	X6	Y6	Z6	X7	Y7	Z7	X8	Y8	Z8	X9	Y9	Z9  
615	6.15	-74.823	1.659	155.633	-20.839	-224.736	238.19	-1.707	-208.45	258.394	-46.816	-153.158	-8.669	-46.816	31.938	-8.669	0	0	0	-138.154	29.253	45.661	-103.673	27.98	159.828	-150.002	-83.374	53.428
616	6.16	-74.547	1.709	155.262	-22.42	-225.619	236.434	-2.904	-209.637	256.512	-46.816	-153.158	-8.669	-46.816	31.938	-8.669	0	0	0	-137.387	29.741	45.808	-102.545	28.231	159.863	-149.26	-82.896	53.394
617	6.17	-74.366	1.669	155.148	-24.449	-226.571	235.142	-4.589	-210.902	255.129	-46.816	-153.158	-8.669	-46.816	31.938	-8.669	0	0	0	-136.904	30.149	46.268	-101.7	28.518	160.21	-148.934	-82.473	53.829
618	6.18	-74.177	1.417	155.34	-26.818	-227.659	234.495	-6.69	-212.297	254.452	-46.816	-153.158	-8.669	-46.816	31.938	-8.669	0	0	0	-136.674	30.378	46.744	-101.16	28.693	160.589	-149.02	-82.204	54.389
619	6.19	-73.838	0.752	155.876	-29.457	-229.09	234.533	-9.136	-214.034	254.527	-46.816	-153.158	-8.669	-46.816	31.938	-8.669	0	0	0	-136.633	30.296	47.139	-100.951	28.509	160.931	-149.476	-82.225	54.862
620	6.2	-73.523	-0.194	156.656	-32.363	-230.754	234.962	-11.888	-216.006	255.03	-46.816	-153.158	-8.669	-46.816	31.938	-8.669	0	0	0	-136.826	29.973	47.601	-101.148	27.957	161.39	-150.298	-82.477	55.296
621	6.21	-73.553	-1.115	157.55	-35.516	-232.373	235.379	-14.892	-217.937	255.522	-46.816	-153.158	-8.669	-46.816	31.938	-8.669	0	0	0	-137.107	29.701	48.069	-101.513	27.351	161.878	-151.211	-82.68	55.622
622	6.22	-73.904	-1.845	158.331	-38.673	-233.813	235.365	-17.886	-219.696	255.564	-46.816	-153.158	-8.669	-46.816	31.938	-8.669	0	0	0	-137.008	29.698	48.266	-101.477	26.995	162.086	-151.636	-82.629	55.626
623	6.23	-74.332	-2.237	158.587	-41.587	-234.952	234.454	-20.618	-221.166	254.695	-46.816	-153.158	-8.669	-46.816	31.938	-8.669	0	0	0	-136.428	29.852	48.192	-100.959	26.839	162.024	-151.471	-82.433	55.369
624	6.24	-74.789	-2.23	158.268	-44.387	-235.71	232.748	-23.236	-222.263	253.027	-46.816	-153.158	-8.669	-46.816	31.938	-8.669	0	0	0	-135.902	29.97	48.157	-100.587	26.696	162.029	-151.325	-82.273	55.171
625	6.25	-75.277	-2.136	157.901	-47.327	-236.34	231.056	-26.021	-223.234	251.395	-46.816	-153.158	-8.669	-46.816	31.938	-8.669	0	0	0	-135.76	30.131	48.317	-100.685	26.625	162.256	-151.559	-82.069	55.183
626	6.26	-75.653	-2.449	157.875	-50.388	-237.303	229.914	-28.977	-224.53	250.355	-46.816	-153.158	-8.669	-46.816	31.938	-8.669	0	0	0	-135.731	30.35	48.631	-100.89	26.616	162.635	-151.922	-81.803	55.359
627	6.27	-75.822	-3.305	158.101	-53.399	-238.738	229.183	-31.938	-226.29	249.772	-46.816	-153.158	-8.669	-46.816	31.938	-8.669	0	0	0	-135.559	30.277	49.122	-100.89	26.279	163.169	-152.205	-81.818	55.703
628	6.28	-75.873	-4.333	158.413	-56.292	-240.268	228.666	-34.826	-228.124	249.43	-46.816	-153.158	-8.669	-46.816	31.938	-8.669	0	0	0	-135.434	29.756	49.732	-100.886	25.45	163.806	-152.597	-82.271	56.151
629	6.29	-75.952	-4.998	158.707	-59.084	-241.332	228.319	-37.635	-229.461	249.258	-46.816	-153.158	-8.669	-46.816	31.938	-8.669	0	0	0	-135.589	29.27	50.176	-101.123	24.653	164.262	-153.235	-82.69	56.425
630	6.3	-76.044	-5.044	158.802	-61.688	-241.688	227.924	-40.257	-230.06	249.016	-46.816	-153.158	-8.669	-46.816	31.938	-8.669	0	0	0	-135.819	29.403	50.188	-101.383	24.506	164.271	-153.833	-82.508	56.27
631	6.31	-76.109	-4.757	158.571	-64.112	-241.68	227.186	-42.68	-230.287	248.406	-46.816	-153.158	-8.669	-46.816	31.938	-8.669	0	0	0	-135.825	30.044	49.81	-101.367	24.89	163.875	-154.117	-81.831	55.73
632	6.32	-76.294	-4.74	158.155	-66.684	-241.948	226.158	-45.229	-230.807	247.488	-46.816	-153.158	-8.669	-46.816	31.938	-8.669	0	0	0	-135.678	30.558	49.423	-101.178	25.111	163.462	-154.269	-81.277	55.157
633	6.33	-76.715	-5.375	157.881	-69.695	-242.864	225.216	-48.208	-231.998	246.655	-46.816	-153.158	-8.669	-46.816	31.938	-8.669	0	0	0	-135.598	30.623	49.388	-101.081	24.792	163.403	-154.59	-81.157	54.872
634	6.34	-77.238	-6.536	158.025	-73.042	-244.281	224.688	-51.541	-233.706	246.259	-46.816	-153.158	-8.669	-46.816	31.938	-8.669	0	0	0	-135.655	30.411	49.682	-101.144	24.098	163.673	-155.123	-81.303	54.843
635	6.35	-77.581	-7.623	158.644	-76.265	-245.578	224.674	-54.786	-235.286	246.404	-46.816	-153.158	-8.669	-46.816	31.938	-8.669	0	0	0	-135.761	30.081	50.175	-101.281	23.233	164.144	-155.718	-81.563	54.959
636	6.36	-77.541	-7.964	159.53	-78.9	-246.054	225.073	-57.467	-236.009	246.963	-46.816	-153.158	-8.669	-46.816	31.938	-8.669	0	0	0	-135.844	29.769	50.856	-101.437	22.404	164.815	-156.237	-81.813	55.257
637	6.37	-77.321	-7.478	160.337	-81.092	-245.616	225.607	-59.685	-235.782	247.617	-46.816	-153.158	-8.669	-46.816	31.938	-8.669	0	0	0	-136.031	29.774	51.518	-101.699	21.997	165.473	-156.745	-81.761	55.602
638	6.38	-77.315	-6.896	160.853	-83.489	-245.029	225.96	-62.049	-235.409	248.032	-46.816	-153.158	-8.669	-46.816	31.938	-8.669	0	0	0	-136.39	30.144	51.889	-102.067	22.065	165.825	-157.321	-81.358	55.745
639	6.39	-77.472	-7.145	161.174	-86.342	-245.25	226.069	-64.805	-235.891	248.159	-46.816	-153.158	-8.669	-46.816	31.938	-8.669	0	0	0	-136.61	30.556	52.052	-102.216	22.209	165.948	-157.752	-80.912	55.725
640	6.4	-77.381	-8.401	161.432	-89.243	-246.454	226.042	-67.568	-237.398	248.124	-46.816	-153.158	-8.669	-46.816	31.938	-8.669	0	0	0	-136.381	30.781	52.257	-101.882	22.126	166.098	-157.802	-80.64	55.738
641	6.41	-76.977	-9.965	161.594	-91.806	-247.933	225.901	-69.985	-239.187	247.964	-46.816	-153.158	-8.669	-46.816	31.938	-8.669	0	0	0	-135.888	30.831	52.499	-101.287	21.826	166.282	-157.623	-80.536	55.758
642	6.42	-76.641	-10.956	161.674	-94.091	-248.834	225.656	-72.145	-240.369	247.704	-46.816	-153.158	-8.669	-46.816	31.938	-8.669	0	0	0	-135.598	30.836	52.499	-100.907	21.505	166.228	-157.593	-80.486	55.541
643	6.43	-76.619	-11.039	161.816	-96.278	-248.841	225.438	-74.243	-240.616	247.489	-46.816	-153.158	-8.669	-46.816	31.938	-8.669	0	0	0	-135.71	30.828	52.176	-100.941	21.286	165.864	-157.874	-80.464	55.081
